<?xml version="1.0" encoding="UTF-8"?>
<svg width="33px" height="33px" viewBox="0 0 33 33" version="1.1" xmlns="http://www.w3.org/2000/svg" xmlns:xlink="http://www.w3.org/1999/xlink">
    <!-- Generator: sketchtool 57.1 (101010) - https://sketch.com -->
    <title>CD262D45-B0AE-4F75-9CC6-BE51D547F576</title>
    <desc>Created with sketchtool.</desc>
    <g id="Page-1" stroke="none" stroke-width="1" fill="none" fill-rule="evenodd">
        <g id="Homepage---Tennis" transform="translate(-249.000000, -2348.000000)">
            <g id="Group-27-Copy" transform="translate(78.000000, 2349.000000)">
                <g id="Group-26" transform="translate(172.000000, 0.000000)">
                    <circle id="Oval" stroke="#FFFFFF" fill-rule="nonzero" cx="15.5" cy="15.5" r="15.5"></circle>
                    <g id="Path-3" transform="translate(13.000000, 10.000000)" fill="#FFFFFF">
                        <path d="M5.77405761,0.00228873423 L4.33493044,0 C2.71812042,0 1.67326676,1.06254486 1.67326676,2.70711484 L1.67326676,3.95527605 L0.226288749,3.95527605 C0.10125267,3.95527605 0,4.05575149 0,4.17968644 L0,5.98812979 C0,6.11206475 0.101368123,6.21242575 0.226288749,6.21242575 L1.67326676,6.21242575 L1.67326676,10.775704 C1.67326676,10.899639 1.77451943,11 1.8995555,11 L3.78745021,11 C3.91248629,11 4.01373896,10.8995246 4.01373896,10.775704 L4.01373896,6.21242575 L5.70559372,6.21242575 C5.8306298,6.21242575 5.93188247,6.11206475 5.93188247,5.98812979 L5.93257519,4.17968644 C5.93257519,4.12017935 5.90867633,4.06318987 5.86630491,4.02107716 C5.8239335,3.97896445 5.76620678,3.95527605 5.70617099,3.95527605 L4.01373896,3.95527605 L4.01373896,2.89719422 C4.01373896,2.38863747 4.13600416,2.13046825 4.80436414,2.13046825 L5.7738267,2.13012494 C5.89874733,2.13012494 6,2.02964951 6,1.90582899 L6,0.226584688 C6,0.102878603 5.89886278,0.00251760765 5.77405761,0.00228873423 Z" id="Path"></path>
                    </g>
                </g>
            </g>
        </g>
    </g>
</svg>