<?xml version="1.0" encoding="UTF-8"?>
<svg width="33px" height="33px" viewBox="0 0 33 33" version="1.1" xmlns="http://www.w3.org/2000/svg" xmlns:xlink="http://www.w3.org/1999/xlink">
    <!-- Generator: sketchtool 57.1 (101010) - https://sketch.com -->
    <title>CAC6CFB1-AD69-4086-B72C-1FA9CB5D8DC7</title>
    <desc>Created with sketchtool.</desc>
    <g id="Page-1" stroke="none" stroke-width="1" fill="none" fill-rule="evenodd">
        <g id="Homepage---Tennis" transform="translate(-163.000000, -2348.000000)">
            <g id="Group-27-Copy" transform="translate(78.000000, 2349.000000)">
                <g id="Group-25" transform="translate(86.000000, 0.000000)">
                    <g id="Group-19" transform="translate(10.000000, 10.000000)" fill="#FFFFFF">
                        <g id="Group-18">
                            <g id="Group-2">
                                <path d="M9.38867187,0.0107212476 L1.61132812,0.0107212476 C0.72291566,0.0107212476 0,0.732227715 0,1.61890838 L0,9.38109162 C0,10.2677723 0.72291566,10.9892788 1.61132812,10.9892788 L9.38867187,10.9892788 C10.2770843,10.9892788 11,10.2677723 11,9.38109162 L11,1.61890838 C11,0.732227715 10.2770843,0.0107212476 9.38867187,0.0107212476 Z M5.52148437,8.37329435 C3.92215729,8.37329435 2.62109375,7.07476699 2.62109375,5.4785575 C2.62109375,3.88234802 3.92215729,2.58382066 5.52148437,2.58382066 C7.12081146,2.58382066 8.421875,3.88234802 8.421875,5.4785575 C8.421875,7.07476699 7.12081146,8.37329435 5.52148437,8.37329435 Z M8.74414062,3.22709552 C8.21105957,3.22709552 7.77734375,2.79422515 7.77734375,2.26218324 C7.77734375,1.73014133 8.21105957,1.29727096 8.74414062,1.29727096 C9.27722168,1.29727096 9.7109375,1.73014133 9.7109375,2.26218324 C9.7109375,2.79422515 9.27722168,3.22709552 8.74414062,3.22709552 Z" id="Shape" fill-rule="nonzero"></path>
                                <path d="M8.74414062,1.94054581 C8.56630706,1.94054581 8.421875,2.08469633 8.421875,2.26218324 C8.421875,2.43967014 8.56630706,2.58382066 8.74414062,2.58382066 C8.92197419,2.58382066 9.06640625,2.43967014 9.06640625,2.26218324 C9.06640625,2.08469633 8.92197419,1.94054581 8.74414062,1.94054581 Z" id="Path"></path>
                                <path d="M5.52148437,3.22709552 C4.27774048,3.22709552 3.265625,4.23723806 3.265625,5.4785575 C3.265625,6.71987695 4.27774048,7.73001949 5.52148437,7.73001949 C6.76522827,7.73001949 7.77734375,6.71987695 7.77734375,5.4785575 C7.77734375,4.23723806 6.76522827,3.22709552 5.52148437,3.22709552 Z" id="Path"></path>
                            </g>
                        </g>
                    </g>
                    <circle id="Oval" stroke="#FFFFFF" fill-rule="nonzero" cx="15.5" cy="15.5" r="15.5"></circle>
                </g>
            </g>
        </g>
    </g>
</svg>