<?xml version="1.0" encoding="UTF-8"?>
<svg width="33px" height="33px" viewBox="0 0 33 33" version="1.1" xmlns="http://www.w3.org/2000/svg" xmlns:xlink="http://www.w3.org/1999/xlink">
    <!-- Generator: sketchtool 57.1 (101010) - https://sketch.com -->
    <title>1B41667C-8339-4373-B257-8D2BB1254E09</title>
    <desc>Created with sketchtool.</desc>
    <g id="Page-1" stroke="none" stroke-width="1" fill="none" fill-rule="evenodd">
        <g id="Homepage---Tennis" transform="translate(-77.000000, -2348.000000)" fill-rule="nonzero">
            <g id="Group-27-Copy" transform="translate(78.000000, 2349.000000)">
                <g id="Group-23">
                    <circle id="Oval" stroke="#FFFFFF" cx="15.5" cy="15.5" r="15.5"></circle>
                    <g id="LinkedIn-2" transform="translate(10.000000, 10.000000)" fill="#FFFFFF">
                        <path d="M12,6.74409127 L12,11 L9.42801145,11 L9.42801145,7.02912638 C9.42801145,6.03161055 9.05600104,5.35084501 8.12502645,5.35084501 C7.4143454,5.35084501 6.99141861,5.8096311 6.80535761,6.25342942 C6.73750631,6.41208559 6.72004129,6.6329142 6.72004129,6.85500071 L6.72004129,11 L4.14718786,11 C4.14718786,11 4.18183889,4.27464343 4.14718786,3.57784634 L6.7197902,3.57784634 L6.7197902,4.62990691 C6.71457301,4.63777549 6.70779346,4.64625963 6.70288317,4.65388733 L6.7197902,4.65388733 L6.7197902,4.62990691 C7.06158557,4.12489964 7.67199622,3.40347979 9.03828493,3.40347979 C10.7310243,3.40347979 12,4.46429214 12,6.74409127 Z M1.45587363,0 C0.57570382,0 0,0.553824556 0,1.28212271 C0,1.9945499 0.559047887,2.56518216 1.42172479,2.56518216 L1.43891081,2.56518216 C2.33612715,2.56518216 2.89411486,1.99465696 2.89411486,1.28212271 C2.87720783,0.553824556 2.33612715,0 1.45587363,0 Z M0.152804934,11 L2.72468189,11 L2.72468189,3.57784634 L0.152804934,3.57784634 L0.152804934,11 Z" id="LinkedIn"></path>
                    </g>
                </g>
            </g>
        </g>
    </g>
</svg>