<?xml version="1.0" encoding="UTF-8"?>
<svg width="33px" height="33px" viewBox="0 0 33 33" version="1.1" xmlns="http://www.w3.org/2000/svg" xmlns:xlink="http://www.w3.org/1999/xlink">
    <!-- Generator: sketchtool 57.1 (101010) - https://sketch.com -->
    <title>F783E76F-46AC-47B0-A85C-9ECF7137127A</title>
    <desc>Created with sketchtool.</desc>
    <g id="Page-1" stroke="none" stroke-width="1" fill="none" fill-rule="evenodd">
        <g id="Homepage---Tennis" transform="translate(-206.000000, -2348.000000)">
            <g id="Group-27-Copy" transform="translate(78.000000, 2349.000000)">
                <g id="Group-22" transform="translate(129.000000, 0.000000)">
                    <circle id="Oval" stroke="#FFFFFF" fill-rule="nonzero" cx="15.5" cy="15.5" r="15.5"></circle>
                    <g id="Path-4" transform="translate(9.000000, 10.000000)" fill="#FFFFFF">
                        <path d="M14,1.30147309 C13.4847214,1.52232765 12.9318349,1.67210869 12.3509254,1.73897799 C12.9440734,1.39540432 13.3981134,0.850448283 13.6133066,0.203086183 C13.05692,0.521257486 12.442772,0.752290699 11.7883853,0.877532341 C11.2643681,0.336802657 10.5190041,0 9.69227074,0 C8.10619625,0 6.82018435,1.24394159 6.82018435,2.77728874 C6.82018435,2.99475779 6.84555367,3.20715965 6.89455375,3.41026796 C4.50800737,3.29431987 2.39178495,2.18832111 0.97542643,0.507715456 C0.727841059,0.917295456 0.586994423,1.39454135 0.586994423,1.90398275 C0.586994423,2.86783446 1.09440375,3.71828275 1.86426775,4.21584168 C1.39359705,4.20061796 0.95092639,4.07537632 0.563386541,3.86720081 L0.563386541,3.90189673 C0.563386541,5.24738141 1.55370515,6.37030771 2.86682495,6.62588032 C2.62623959,6.68850114 2.37254636,6.72319706 2.11009168,6.72319706 C1.92463713,6.72319706 1.74529043,6.70542868 1.56944374,6.67157361 C1.93511427,7.77589068 2.995433,8.57894186 4.25170629,8.60095872 C3.26925698,9.34563756 2.03048371,9.78820966 0.684994583,9.78820966 C0.453170675,9.78820966 0.224823897,9.77466763 0,9.75012824 C1.2711426,10.5396595 2.78023984,11 4.40218366,11 C9.68531648,11 12.5731643,6.76720866 12.5731643,3.09632301 L12.5635336,2.73668478 C13.1277894,2.34739569 13.6159373,1.85828946 14,1.30147309 Z" id="Path"></path>
                    </g>
                </g>
            </g>
        </g>
    </g>
</svg>